<svg xmlns="http://www.w3.org/2000/svg" viewBox="0 0 1000 1000" width="1000" height="1000" role="img" aria-label="Hand trolley loaded with sealed cartons and courier parcels ready for dispatch">
  <rect width="1000" height="1000" fill="#F7EEDB"/>
  <rect width="1000" height="430" fill="#FCF8F0"/>
  <circle cx="760" cy="230" r="240" fill="#C08D55" opacity=".12"/>
  <g stroke="#C08D55" stroke-width="18" opacity=".35" fill="none">
    <path d="M60 120v660M940 120v660M60 420h160M780 420h160"/>
  </g>
  <ellipse cx="500" cy="900" rx="390" ry="44" fill="#6B2C1F" opacity=".07"/>

  <g>
    <polygon points="250,180 250,400 560,400 560,180" fill="#D8AB77"/>
    <polygon points="560,180 640,130 640,350 560,400" fill="#C08D55"/>
    <polygon points="250,180 330,130 640,130 560,180" fill="#E3BC91"/>
    <rect x="378" y="180" width="46" height="220" fill="#C79A63"/>
    <polygon points="250,400 250,640 560,640 560,400" fill="#C08D55"/>
    <polygon points="560,400 640,350 640,590 560,640" fill="#A9763F"/>
    <rect x="378" y="400" width="46" height="240" fill="#B07F49"/>
  </g>
  <g>
    <rect x="600" y="360" width="230" height="290" rx="16" fill="#FFFFFF" stroke="#6B2C1F" stroke-opacity=".14" stroke-width="3"/>
    <rect x="600" y="360" width="230" height="52" rx="16" fill="#FCF8F0"/>
    <rect x="624" y="394" width="182" height="12" rx="6" fill="#C08D55" opacity=".7"/>
    <rect x="636" y="450" width="158" height="140" rx="10" fill="#F7EEDB"/>
    <g fill="#4A1F17" opacity=".72">
      <rect x="658" y="474" width="6" height="48"/><rect x="672" y="474" width="4" height="48"/>
      <rect x="684" y="474" width="8" height="48"/><rect x="700" y="474" width="4" height="48"/>
      <rect x="712" y="474" width="6" height="48"/><rect x="726" y="474" width="9" height="48"/>
    </g>
    <rect x="658" y="540" width="110" height="12" rx="6" fill="#6B2C1F" opacity=".22"/>
  </g>
  <g>
    <rect x="250" y="640" width="260" height="130" rx="14" fill="#4A1F17"/>
    <rect x="250" y="640" width="260" height="36" rx="14" fill="#6B2C1F"/>
    <rect x="274" y="666" width="212" height="12" rx="6" fill="#C08D55" opacity=".55"/>
  </g>

  <rect x="220" y="770" width="620" height="40" rx="12" fill="#8F6A3C"/>
  <g stroke="#4A1F17" stroke-width="20" fill="none" stroke-linecap="round">
    <path d="M220 150v670M220 820h580"/>
    <path d="M220 200h90"/>
  </g>
  <circle cx="320" cy="880" r="52" fill="#4A1F17"/><circle cx="320" cy="880" r="19" fill="#C08D55"/>
  <circle cx="760" cy="880" r="52" fill="#4A1F17"/><circle cx="760" cy="880" r="19" fill="#C08D55"/>
</svg>
